<svg width="21" height="21" viewBox="0 0 21 21" fill="none" xmlns="http://www.w3.org/2000/svg">
<path d="M9.22837 12.7597L7.07837 10.6097C6.89504 10.4264 6.6617 10.3347 6.37837 10.3347C6.09504 10.3347 5.8617 10.4264 5.67837 10.6097C5.49504 10.793 5.40337 11.0264 5.40337 11.3097C5.40337 11.593 5.49504 11.8264 5.67837 12.0097L8.52837 14.8597C8.72837 15.0597 8.9617 15.1597 9.22837 15.1597C9.49504 15.1597 9.72837 15.0597 9.92837 14.8597L15.5784 9.20969C15.7617 9.02636 15.8534 8.79302 15.8534 8.50969C15.8534 8.22636 15.7617 7.99302 15.5784 7.80969C15.395 7.62636 15.1617 7.53469 14.8784 7.53469C14.595 7.53469 14.3617 7.62636 14.1784 7.80969L9.22837 12.7597ZM10.6284 20.9597C9.24504 20.9597 7.94503 20.6972 6.72837 20.1722C5.5117 19.6472 4.45337 18.9347 3.55337 18.0347C2.65337 17.1347 1.94087 16.0764 1.41587 14.8597C0.890868 13.643 0.628368 12.343 0.628368 10.9597C0.628368 9.57636 0.890868 8.27636 1.41587 7.05969C1.94087 5.84302 2.65337 4.78469 3.55337 3.88469C4.45337 2.98469 5.5117 2.27219 6.72837 1.74719C7.94503 1.22219 9.24504 0.95969 10.6284 0.95969C12.0117 0.95969 13.3117 1.22219 14.5284 1.74719C15.745 2.27219 16.8034 2.98469 17.7034 3.88469C18.6034 4.78469 19.3159 5.84302 19.8409 7.05969C20.3659 8.27636 20.6284 9.57636 20.6284 10.9597C20.6284 12.343 20.3659 13.643 19.8409 14.8597C19.3159 16.0764 18.6034 17.1347 17.7034 18.0347C16.8034 18.9347 15.745 19.6472 14.5284 20.1722C13.3117 20.6972 12.0117 20.9597 10.6284 20.9597Z" fill="white"/>
</svg>
