<svg width="11" height="10" viewBox="0 0 11 10" fill="none" xmlns="http://www.w3.org/2000/svg">
<path d="M5.54826 0.159042C4.71623 0.158847 3.89935 0.381564 3.18256 0.80403C2.46576 1.2265 1.87524 1.83328 1.47241 2.56129C1.06957 3.28929 0.869132 4.11193 0.891932 4.94364C0.914732 5.77536 1.15994 6.58577 1.60206 7.29062L1.7128 7.46673L1.24241 9.18434L3.00463 8.72219L3.17465 8.82309C3.89215 9.24793 4.71068 9.47202 5.54452 9.4719H5.54639C6.78032 9.47057 7.96326 8.97952 8.8354 8.10662C9.70753 7.23372 10.1975 6.05034 10.1978 4.81641C10.198 3.58248 9.70851 2.39891 8.83672 1.52565C7.96494 0.652399 6.78219 0.160875 5.54826 0.159042ZM8.28704 6.81463C8.18397 6.98471 8.04683 7.13163 7.88422 7.24614C7.72162 7.36064 7.53709 7.44026 7.34222 7.47999C7.04803 7.53033 6.74615 7.51136 6.46057 7.42459C6.18958 7.34041 5.92322 7.24201 5.6626 7.12978C4.69588 6.64465 3.87189 5.91654 3.27146 5.01688C2.94411 4.60029 2.74547 4.0972 2.69992 3.56934C2.69603 3.35141 2.73759 3.13505 2.82194 2.93407C2.90629 2.73308 3.03158 2.55187 3.18983 2.40198C3.23661 2.34863 3.29391 2.30554 3.35815 2.2754C3.42238 2.24527 3.49215 2.22875 3.56308 2.22688C3.65636 2.22688 3.74979 2.22774 3.83132 2.23182C3.91726 2.23609 4.03266 2.19916 4.14628 2.47206C4.26291 2.75219 4.54287 3.44093 4.57782 3.51097C4.6 3.54764 4.61269 3.58927 4.61473 3.63207C4.61678 3.67488 4.60811 3.71752 4.58952 3.75614C4.55424 3.84025 4.5071 3.91887 4.44953 3.98961C4.37956 4.07133 4.30253 4.17205 4.23961 4.23478C4.16949 4.30456 4.09654 4.38029 4.17817 4.52033C4.3884 4.88017 4.65083 5.20684 4.95688 5.48971C5.28887 5.7849 5.66978 6.01994 6.08251 6.18427C6.22246 6.25434 6.3041 6.24264 6.38576 6.14926C6.46742 6.05588 6.73568 5.74065 6.82894 5.60059C6.92221 5.46054 7.01556 5.48386 7.14385 5.53057C7.27213 5.57729 7.96038 5.91579 8.10037 5.98582C8.24037 6.05584 8.33365 6.09089 8.36862 6.14926C8.40697 6.37428 8.37861 6.60554 8.28704 6.81463Z" fill="#0CFF6D"/>
</svg>
